<?xml version="1.0" encoding="utf-8"?>
<!-- Generator: Adobe Illustrator 26.0.1, SVG Export Plug-In . SVG Version: 6.00 Build 0)  -->
<svg version="1.1" xmlns="http://www.w3.org/2000/svg" xmlns:xlink="http://www.w3.org/1999/xlink" x="0px" y="0px"
	 viewBox="0 0 3000 2500" style="enable-background:new 0 0 3000 2500;" xml:space="preserve">
<style type="text/css">
	.st0{opacity:0.7;}
	.st1{fill:#022140;}
	.st2{fill:#012240;}
	.st3{fill:#01528C;}
	.st4{fill:#D2E4FF;}
	.st5{fill:#FFFFFF;}
	.st6{fill:#023B73;}
	.st7{fill:#4D4D4D;}
	.st8{opacity:0.8;fill:#40B0FF;}
	.st9{fill:#024280;}
	.st10{fill:#023566;}
	.st11{fill:#0178CC;}
	.st12{fill:#2C70D9;}
	.st13{fill:#001E4D;}
	.st14{fill:#0196FF;}
	.st15{fill:#2865C4;}
	.st16{fill:#022B52;}
	.st17{clip-path:url(#SVGID_00000124153645430345388550000004208763212587483798_);}
	.st18{fill:#025899;}
	.st19{fill:#014373;}
	.st20{opacity:0.5;clip-path:url(#SVGID_00000022547699442662264870000015996405455625493144_);}
	.st21{filter:url(#Adobe_OpacityMaskFilter);}
	.st22{filter:url(#Adobe_OpacityMaskFilter_00000151542987839241408380000001172346928572081051_);}
	
		.st23{mask:url(#SVGID_00000129927045726281351820000008121180913869190823_);fill:url(#SVGID_00000129908146963818315900000012986648086570683812_);}
	.st24{fill:url(#SVGID_00000050631725534628162020000011252176896859275923_);}
	.st25{filter:url(#Adobe_OpacityMaskFilter_00000045604115816671995780000013576196492280053654_);}
	.st26{filter:url(#Adobe_OpacityMaskFilter_00000101094396626448277260000008425515920047851143_);}
	
		.st27{mask:url(#SVGID_00000079444038362898663150000002026005513462768001_);fill:url(#SVGID_00000115478310949049876910000018004196270527651488_);}
	.st28{fill:url(#SVGID_00000168838073288556694520000012449031727729810097_);}
	.st29{filter:url(#Adobe_OpacityMaskFilter_00000059271741774247534380000017021282444463912631_);}
	.st30{filter:url(#Adobe_OpacityMaskFilter_00000115497233425104665870000009733726717691701896_);}
	
		.st31{mask:url(#SVGID_00000078020822700392477580000011021109654446967936_);fill:url(#SVGID_00000130640349678070746990000003114743773859631508_);}
	.st32{fill:url(#SVGID_00000066473782168179433090000002558445551204106639_);}
	.st33{filter:url(#Adobe_OpacityMaskFilter_00000024692568343139961230000001152764535124882821_);}
	.st34{filter:url(#Adobe_OpacityMaskFilter_00000111896545382413899150000007340304661547093434_);}
	
		.st35{mask:url(#SVGID_00000183230472364059352710000009442706593345785485_);fill:url(#SVGID_00000002351452094221561100000007186727913110015362_);}
	.st36{fill:url(#SVGID_00000076574604207021967250000008580143737965530786_);}
	.st37{filter:url(#Adobe_OpacityMaskFilter_00000159464714071122064480000013587909714825768381_);}
	.st38{filter:url(#Adobe_OpacityMaskFilter_00000108304447641188654090000009475271665141621673_);}
	
		.st39{mask:url(#SVGID_00000034056438069506528710000008011640483343664768_);fill:url(#SVGID_00000034068866120785557790000001440972162243019916_);}
	.st40{fill:url(#SVGID_00000005957091294471843330000005964389242310775984_);}
	.st41{filter:url(#Adobe_OpacityMaskFilter_00000039108540057628721940000006232226800264196265_);}
	.st42{filter:url(#Adobe_OpacityMaskFilter_00000119108247884671115580000014292374691212433590_);}
	
		.st43{mask:url(#SVGID_00000134229968810466116440000013400505654211745966_);fill:url(#SVGID_00000170267456222925514250000011951118179317867933_);}
	.st44{fill:url(#SVGID_00000160176436536804593940000002748576127158640027_);}
	.st45{fill:#94D2FF;}
	.st46{fill:#011A26;}
	.st47{fill:#014363;}
	.st48{opacity:0.4;fill:#012B40;}
	.st49{fill:#025880;}
	.st50{fill:#F7A58E;}
	.st51{fill:#E67A5C;}
	.st52{fill:#723917;}
	.st53{fill:#B55C41;}
	.st54{fill:#0B80C0;}
	.st55{fill:#3996D2;}
	.st56{fill:#011E33;}
	.st57{fill:#026FBF;}
	.st58{fill:#012B40;}
	.st59{fill:#B3644F;}
	.st60{fill:#F7CEC3;}
	.st61{fill:#F0F0F0;}
	.st62{fill:#0E0E0E;}
	.st63{fill:#0D0D0D;}
	.st64{fill:#FF9C80;}
	.st65{fill:#DE7759;}
	.st66{fill:#FFA88F;}
	.st67{fill:#038CCC;}
	.st68{fill:#C2674E;}
	.st69{fill:#282828;}
	.st70{fill:#B35A24;}
</style>
<g id="BG">
</g>
<g id="monitors_1_" class="st0">
	<g id="monitors">
		<g id="back">
			<rect x="456.21" y="376.42" class="st1" width="1214.05" height="891.03"/>
			<rect x="1394.03" y="1288.62" class="st1" width="1176.72" height="863.63"/>
			<rect x="1959.14" y="289.97" class="st1" width="874.47" height="641.8"/>
		</g>
		<g id="front">
			<g>
				<rect x="2109.85" y="576.44" class="st2" width="630.21" height="385.18"/>
				<rect x="2128.3" y="594.26" class="st3" width="593.31" height="349.56"/>
				<g>
					<g>
						<path class="st4" d="M2423.08,781.48c-36.32,0-65.87-29.55-65.87-65.87s29.55-65.87,65.87-65.87
							c36.32,0,65.87,29.55,65.87,65.87S2459.4,781.48,2423.08,781.48z M2423.08,654.04c-33.95,0-61.57,27.62-61.57,61.57
							c0,33.95,27.62,61.57,61.57,61.57c33.95,0,61.57-27.62,61.57-61.57C2484.65,681.66,2457.03,654.04,2423.08,654.04z"/>
						<rect x="2359.36" y="713.46" class="st4" width="127.44" height="4.3"/>
						<path class="st4" d="M2488.95,715.61h-4.3c0-12.13-10.16-19.49-18.68-23.52c-11.28-5.34-26.51-8.28-42.89-8.28
							c-30.6,0-61.57,10.93-61.57,31.81h-4.3c0-24.81,34.15-36.11,65.87-36.11C2454.8,679.5,2488.95,690.8,2488.95,715.61z"/>
						<path class="st4" d="M2423.08,754.95c-17.03,0-32.94-3.39-44.8-9.54c-13.79-7.15-21.07-17.46-21.07-29.8h4.3
							c0,24.08,31.92,35.04,61.57,35.04c29.66,0,61.57-10.97,61.57-35.04h4.3C2488.95,742.64,2454.8,754.95,2423.08,754.95z"/>
					</g>
					<g>
						<path class="st4" d="M2423.08,781.48c-36.32,0-65.87-29.55-65.87-65.87s29.55-65.87,65.87-65.87
							c36.32,0,65.87,29.55,65.87,65.87S2459.4,781.48,2423.08,781.48z M2423.08,654.04c-33.95,0-61.57,27.62-61.57,61.57
							c0,33.95,27.62,61.57,61.57,61.57c33.95,0,61.57-27.62,61.57-61.57C2484.65,681.66,2457.03,654.04,2423.08,654.04z"/>
						<rect x="2420.93" y="651.89" class="st4" width="4.3" height="127.44"/>
						<path class="st4" d="M2423.08,781.48v-4.3c12.13,0,19.49-10.16,23.52-18.68c5.34-11.27,8.28-26.51,8.28-42.89
							c0-30.6-10.93-61.57-31.81-61.57v-4.3c24.81,0,36.11,34.15,36.11,65.87C2459.19,747.34,2447.89,781.48,2423.08,781.48z"/>
						<path class="st4" d="M2423.08,781.48c-27.03,0-39.34-34.15-39.34-65.87c0-17.03,3.39-32.94,9.54-44.8
							c7.15-13.79,17.46-21.07,29.8-21.07v4.3c-24.08,0-35.04,31.92-35.04,61.57c0,29.65,10.97,61.57,35.04,61.57V781.48z"/>
					</g>
				</g>
				<g>
					<g>
						<path class="st4" d="M2230.41,781.48c-36.32,0-65.87-29.55-65.87-65.87s29.55-65.87,65.87-65.87s65.87,29.55,65.87,65.87
							S2266.74,781.48,2230.41,781.48z M2230.41,654.04c-33.95,0-61.57,27.62-61.57,61.57c0,33.95,27.62,61.57,61.57,61.57
							s61.57-27.62,61.57-61.57C2291.99,681.66,2264.36,654.04,2230.41,654.04z"/>
						<rect x="2228.26" y="651.89" class="st4" width="4.3" height="127.44"/>
						<path class="st4" d="M2230.41,781.48v-4.3c12.13,0,19.49-10.16,23.53-18.68c5.34-11.27,8.28-26.51,8.28-42.89
							c0-30.6-10.93-61.57-31.81-61.57v-4.3c24.81,0,36.11,34.15,36.11,65.87C2266.52,747.34,2255.22,781.48,2230.41,781.48z"/>
						<path class="st4" d="M2230.41,781.48c-27.03,0-39.34-34.15-39.34-65.87c0-17.03,3.39-32.94,9.54-44.8
							c7.15-13.79,17.46-21.07,29.8-21.07v4.3c-24.08,0-35.04,31.92-35.04,61.57c0,29.65,10.97,61.57,35.04,61.57V781.48z"/>
					</g>
					<g>
						<path class="st4" d="M2230.41,781.48c-36.32,0-65.87-29.55-65.87-65.87s29.55-65.87,65.87-65.87
							c36.32,0,65.87,29.55,65.87,65.87S2266.74,781.48,2230.41,781.48z M2230.41,654.04c-33.95,0-61.57,27.62-61.57,61.57
							c0,33.95,27.62,61.57,61.57,61.57c33.95,0,61.57-27.62,61.57-61.57C2291.99,681.66,2264.37,654.04,2230.41,654.04z"/>
						<rect x="2166.69" y="713.46" class="st4" width="127.44" height="4.3"/>
						<path class="st4" d="M2230.41,751.72c-17.01,0-32.89-3.09-44.73-8.7c-13.83-6.55-21.14-16.03-21.14-27.41h4.3
							c0,20.88,30.97,31.81,61.57,31.81c30.6,0,61.57-10.93,61.57-31.81h4.3C2296.29,740.42,2262.14,751.72,2230.41,751.72z"/>
						<path class="st4" d="M2296.29,715.61h-4.3c0-24.08-31.92-35.04-61.57-35.04c-29.66,0-61.57,10.97-61.57,35.04h-4.3
							c0-27.03,34.15-39.34,65.87-39.34C2262.14,676.27,2296.29,688.58,2296.29,715.61z"/>
					</g>
				</g>
				<g>
					<g>
						<path class="st4" d="M2625.04,781.48c-36.32,0-65.87-29.55-65.87-65.87s29.55-65.87,65.87-65.87s65.87,29.55,65.87,65.87
							S2661.36,781.48,2625.04,781.48z M2625.04,654.04c-33.95,0-61.57,27.62-61.57,61.57c0,33.95,27.62,61.57,61.57,61.57
							s61.57-27.62,61.57-61.57C2686.61,681.66,2658.99,654.04,2625.04,654.04z"/>
						<rect x="2561.32" y="713.46" class="st4" width="127.44" height="4.3"/>
						<path class="st4" d="M2690.91,715.61h-4.3c0-12.13-10.16-19.49-18.68-23.52c-11.28-5.34-26.51-8.28-42.89-8.28
							c-30.6,0-61.57,10.93-61.57,31.81h-4.3c0-24.81,34.15-36.11,65.87-36.11C2656.77,679.5,2690.91,690.8,2690.91,715.61z"/>
						<path class="st4" d="M2625.04,754.95c-17.03,0-32.94-3.39-44.8-9.54c-13.79-7.15-21.07-17.46-21.07-29.8h4.3
							c0,24.08,31.92,35.04,61.57,35.04c29.65,0,61.57-10.97,61.57-35.04h4.3C2690.91,742.64,2656.77,754.95,2625.04,754.95z"/>
					</g>
					<g>
						<path class="st4" d="M2625.04,781.48c-36.32,0-65.87-29.55-65.87-65.87s29.55-65.87,65.87-65.87
							c36.32,0,65.87,29.55,65.87,65.87S2661.36,781.48,2625.04,781.48z M2625.04,654.04c-33.95,0-61.57,27.62-61.57,61.57
							c0,33.95,27.62,61.57,61.57,61.57c33.95,0,61.57-27.62,61.57-61.57C2686.61,681.66,2658.99,654.04,2625.04,654.04z"/>
						<rect x="2622.89" y="651.89" class="st4" width="4.3" height="127.44"/>
						<path class="st4" d="M2625.04,781.48v-4.3c12.13,0,19.49-10.16,23.53-18.68c5.34-11.27,8.28-26.51,8.28-42.89
							c0-30.6-10.93-61.57-31.81-61.57v-4.3c24.81,0,36.11,34.15,36.11,65.87C2661.15,747.34,2649.85,781.48,2625.04,781.48z"/>
						<path class="st4" d="M2625.04,781.48c-27.03,0-39.34-34.15-39.34-65.87c0-17.03,3.39-32.94,9.54-44.8
							c7.15-13.79,17.46-21.07,29.8-21.07v4.3c-24.08,0-35.04,31.92-35.04,61.57c0,29.65,10.97,61.57,35.04,61.57V781.48z"/>
					</g>
				</g>
				<g>
					<rect x="2162.71" y="821.35" class="st4" width="131.55" height="11.69"/>
					<rect x="2162.71" y="842.36" class="st4" width="84.4" height="11.69"/>
					<rect x="2162.71" y="863.36" class="st4" width="119.67" height="11.69"/>
					<rect x="2162.71" y="900.48" class="st2" width="119.67" height="11.69"/>
				</g>
				<g>
					<rect x="2359.18" y="821.35" class="st4" width="131.55" height="11.69"/>
					<rect x="2359.18" y="842.36" class="st4" width="84.4" height="11.69"/>
					<rect x="2359.18" y="863.36" class="st4" width="119.67" height="11.69"/>
					<rect x="2359.18" y="900.48" class="st2" width="119.67" height="11.69"/>
				</g>
				<g>
					<rect x="2559.26" y="821.35" class="st4" width="131.55" height="11.69"/>
					<rect x="2559.26" y="842.36" class="st4" width="84.4" height="11.69"/>
					<rect x="2559.26" y="863.36" class="st4" width="119.67" height="11.69"/>
					<rect x="2559.26" y="900.48" class="st2" width="119.67" height="11.69"/>
				</g>
			</g>
			<g>
				<rect x="2210.06" y="1397.64" class="st2" width="552.04" height="337.41"/>
				<rect x="2226.22" y="1413.24" class="st3" width="519.72" height="306.2"/>
				<g>
					<path class="st5" d="M2615.03,1604.45h-246.69c-9.57,0-17.39-7.83-17.39-17.39l0,0c0-9.57,7.83-17.39,17.39-17.39h246.69
						c9.57,0,17.39,7.83,17.39,17.39l0,0C2632.43,1596.62,2624.6,1604.45,2615.03,1604.45z"/>
					<path class="st5" d="M2615.03,1669.93h-246.69c-9.57,0-17.39-7.83-17.39-17.39l0,0c0-9.57,7.83-17.39,17.39-17.39h246.69
						c9.57,0,17.39,7.83,17.39,17.39l0,0C2632.43,1662.1,2624.6,1669.93,2615.03,1669.93z"/>
					<g>
						<path class="st6" d="M2410.08,1654.08c0,3.38-2.74,6.12-6.12,6.12s-6.12-2.74-6.12-6.12s2.74-6.12,6.12-6.12
							S2410.08,1650.7,2410.08,1654.08z"/>
						<path class="st6" d="M2431.08,1654.08c0,3.38-2.74,6.12-6.12,6.12s-6.12-2.74-6.12-6.12s2.74-6.12,6.12-6.12
							S2431.08,1650.7,2431.08,1654.08z"/>
						<path class="st6" d="M2452.07,1654.08c0,3.38-2.74,6.12-6.12,6.12s-6.12-2.74-6.12-6.12s2.74-6.12,6.12-6.12
							S2452.07,1650.7,2452.07,1654.08z"/>
						<path class="st6" d="M2473.07,1654.08c0,3.38-2.74,6.12-6.12,6.12s-6.12-2.74-6.12-6.12s2.74-6.12,6.12-6.12
							S2473.07,1650.7,2473.07,1654.08z"/>
						<path class="st6" d="M2494.06,1654.08c0,3.38-2.74,6.12-6.12,6.12s-6.12-2.74-6.12-6.12s2.74-6.12,6.12-6.12
							S2494.06,1650.7,2494.06,1654.08z"/>
						<path class="st6" d="M2515.06,1654.08c0,3.38-2.74,6.12-6.12,6.12s-6.12-2.74-6.12-6.12s2.74-6.12,6.12-6.12
							S2515.06,1650.7,2515.06,1654.08z"/>
						<path class="st6" d="M2536.05,1654.08c0,3.38-2.74,6.12-6.12,6.12c-3.38,0-6.12-2.74-6.12-6.12s2.74-6.12,6.12-6.12
							C2533.31,1647.95,2536.05,1650.7,2536.05,1654.08z"/>
						<path class="st6" d="M2557.05,1654.08c0,3.38-2.74,6.12-6.12,6.12c-3.38,0-6.12-2.74-6.12-6.12s2.74-6.12,6.12-6.12
							C2554.3,1647.95,2557.05,1650.7,2557.05,1654.08z"/>
						<path class="st6" d="M2578.04,1654.08c0,3.38-2.74,6.12-6.12,6.12c-3.38,0-6.12-2.74-6.12-6.12s2.74-6.12,6.12-6.12
							C2575.3,1647.95,2578.04,1650.7,2578.04,1654.08z"/>
					</g>
					<g>
						<circle class="st5" cx="2484.09" cy="1493.68" r="36.33"/>
						<g>
							<g>
								<path class="st6" d="M2484.14,1492.22c3.55,0,6.82-1.73,8.91-4.37c1.55-1.91,2.46-4.37,2.46-7.09
									c0-6.28-5.09-11.46-11.37-11.46c-6.37,0-11.46,5.18-11.46,11.46c0,2.73,0.91,5.18,2.46,7.09
									C2477.23,1490.49,2480.5,1492.22,2484.14,1492.22z"/>
							</g>
							<path class="st6" d="M2504.28,1512.64c0,7.23-40.39,7.23-40.39,0l0.01-8.43c1.6-11.52,37.09-12.01,40.38,0L2504.28,1512.64z"
								/>
						</g>
					</g>
					<path class="st7" d="M2382.82,1649.33v-0.93c0-3.77-3.07-6.84-6.84-6.84s-6.84,3.07-6.84,6.84v0.93h-1.04v12.33
						c0,2.13,15.81,2.13,15.81,0v-12.33H2382.82z M2371.57,1648.4c0-2.37,1.46-4.52,4.4-4.52c2.94,0,4.45,2.01,4.45,4.52v0.93h-8.86
						V1648.4z M2377.14,1655.54v3.56c0,0.64-0.55,1.1-1.19,1.1s-1.1-0.46-1.1-1.1v-3.56c-0.64-0.37-1.1-1.01-1.1-1.83
						c0-1.19,1.01-2.19,2.19-2.19c1.19,0,2.19,1,2.19,2.19C2378.15,1654.54,2377.69,1655.18,2377.14,1655.54z"/>
					<g>
						<g>
							<g>
								<path class="st6" d="M2376.02,1585.8c1.38,0,2.66-0.67,3.48-1.7c0.6-0.75,0.96-1.7,0.96-2.77c0-2.45-1.99-4.47-4.44-4.47
									c-2.48,0-4.47,2.02-4.47,4.47c0,1.07,0.35,2.02,0.96,2.77C2373.32,1585.12,2374.6,1585.8,2376.02,1585.8z"/>
							</g>
							<path class="st6" d="M2383.88,1593.77c0,2.82-15.84,2.82-15.84,0l0.09-3.29c0.62-4.5,14.48-4.69,15.76,0L2383.88,1593.77z"/>
						</g>
						<path class="st6" d="M2467,1592.16h-64.06c-2.81,0-5.1-2.3-5.1-5.1l0,0c0-2.81,2.3-5.1,5.1-5.1H2467c2.81,0,5.1,2.3,5.1,5.1
							l0,0C2472.11,1589.87,2469.81,1592.16,2467,1592.16z"/>
						<path class="st6" d="M2427.3,1554.92h-61.85c-2.81,0-5.1-2.3-5.1-5.1l0,0c0-2.81,2.3-5.1,5.1-5.1h61.85
							c2.81,0,5.1,2.3,5.1,5.1l0,0C2432.41,1552.63,2430.11,1554.92,2427.3,1554.92z"/>
						<path class="st6" d="M2551.49,1592.16h-64.06c-2.81,0-5.1-2.3-5.1-5.1l0,0c0-2.81,2.3-5.1,5.1-5.1h64.06
							c2.81,0,5.1,2.3,5.1,5.1l0,0C2556.6,1589.87,2554.3,1592.16,2551.49,1592.16z"/>
					</g>
				</g>
			</g>
			<g>
				<rect x="395.9" y="1460.15" class="st2" width="723.23" height="442.04"/>
				<rect x="417.08" y="1480.59" class="st3" width="680.89" height="401.16"/>
				<g>
					<g>
						<rect x="477.43" y="1532.64" class="st5" width="433.56" height="1.93"/>
						<rect x="477.43" y="1593.17" class="st5" width="433.56" height="1.93"/>
						<rect x="477.43" y="1651.65" class="st5" width="433.56" height="1.93"/>
						<rect x="477.43" y="1710.14" class="st5" width="433.56" height="1.93"/>
						<rect x="477.43" y="1768.62" class="st5" width="433.56" height="1.93"/>
						<polygon class="st5" points="911.96,1831.2 477.43,1831.2 477.43,1829.27 910.02,1829.27 910.02,1533.61 911.96,1533.61 
													"/>
						<rect x="476.46" y="1533.61" class="st5" width="1.93" height="296.63"/>
						<rect x="538.97" y="1533.61" class="st5" width="1.93" height="296.63"/>
						<rect x="601.43" y="1533.61" class="st5" width="1.93" height="296.63"/>
						<rect x="663.88" y="1533.61" class="st5" width="1.93" height="296.63"/>
						<rect x="726.39" y="1533.61" class="st5" width="1.93" height="296.63"/>
						<rect x="788.85" y="1533.61" class="st5" width="1.93" height="296.63"/>
						<rect x="851.3" y="1533.61" class="st5" width="1.93" height="296.63"/>
						<polygon class="st5" points="468.77,1573.29 466.84,1573.29 466.84,1523.55 514.41,1523.55 514.41,1525.48 468.77,1525.48 
													"/>
						<polygon class="st5" points="919.5,1838.78 871.92,1838.78 871.92,1836.85 917.57,1836.85 917.57,1789.05 919.5,1789.05 
													"/>
					</g>
					<path class="st8" d="M477.43,1652.62c0,0,19.44,81.66,31.59,81.66c12.15,0,26.03-102.55,41.9-102.81
						c15.87-0.26,18.84,99.39,31.73,99.39c12.89,0,21.82-82.02,37.93-82.86c16.11-0.83,26.53,87.87,42.39,87.87
						c15.87,0,23.07-47.57,39.05-47.57c15.98,0,14.83,86.32,25.57,86.32c10.74,0,16.09-130.13,25.57-130.13
						c9.47,0,22.06,77.93,30.79,77.93c8.73,0,20.58-111.14,34.71-111.78c14.13-0.64,22.1,164.5,33.61,162.39
						s24.28-132.59,33.82-132.92c13.78-0.48,24.9,96.01,24.9,96.01v94.11H477.43V1652.62z"/>
				</g>
			</g>
			<g>
				<rect x="159.67" y="591.63" class="st2" width="770.49" height="454.78"/>
				<g>
					<rect x="456.21" y="610.87" class="st9" width="448.66" height="400.76"/>
					<rect x="184.96" y="610.87" class="st10" width="271.25" height="400.76"/>
					<g>
						<g>
							<rect x="230.86" y="631.88" class="st11" width="151.96" height="11.92"/>
							<rect x="230.86" y="652.21" class="st11" width="116.15" height="11.92"/>
							<rect x="230.86" y="672.55" class="st11" width="138.9" height="11.92"/>
							<rect x="230.86" y="692.89" class="st11" width="112.36" height="11.92"/>
							<rect x="267.14" y="713.22" class="st11" width="127" height="11.92"/>
							<rect x="267.14" y="737.69" class="st11" width="115.69" height="11.92"/>
							<rect x="230.86" y="758.02" class="st11" width="116.15" height="11.92"/>
							<rect x="230.86" y="778.36" class="st11" width="138.9" height="11.92"/>
							<rect x="230.86" y="798.7" class="st11" width="112.36" height="11.92"/>
							<rect x="230.86" y="819.03" class="st11" width="163.27" height="11.92"/>
							<rect x="280.69" y="842.34" class="st11" width="138.9" height="11.92"/>
							<rect x="230.86" y="865.64" class="st11" width="163.27" height="11.92"/>
						</g>
						<g>
							<rect x="230.86" y="899.69" class="st11" width="151.96" height="11.92"/>
							<rect x="230.86" y="920.03" class="st11" width="116.15" height="11.92"/>
							<rect x="230.86" y="940.36" class="st11" width="138.9" height="11.92"/>
							<rect x="230.86" y="960.7" class="st11" width="112.36" height="11.92"/>
							<rect x="267.14" y="981.04" class="st11" width="127" height="11.92"/>
						</g>
					</g>
					<g>
						<g>
							<rect x="494.01" y="739.48" class="st11" width="151.96" height="11.92"/>
							<rect x="494.01" y="759.82" class="st11" width="116.15" height="11.92"/>
							<rect x="494.01" y="780.16" class="st11" width="138.9" height="11.92"/>
							<rect x="494.01" y="800.5" class="st11" width="112.36" height="11.92"/>
							<rect x="530.28" y="820.83" class="st11" width="127" height="11.92"/>
							<rect x="530.28" y="845.29" class="st11" width="115.69" height="11.92"/>
							<rect x="494.01" y="865.63" class="st11" width="116.15" height="11.92"/>
							<rect x="494.01" y="885.97" class="st11" width="138.9" height="11.92"/>
							<rect x="494.01" y="906.3" class="st11" width="112.36" height="11.92"/>
							<rect x="494.01" y="926.64" class="st11" width="163.27" height="11.92"/>
							<rect x="543.83" y="949.94" class="st11" width="138.9" height="11.92"/>
							<rect x="494.01" y="973.25" class="st11" width="163.27" height="11.92"/>
						</g>
						<g>
							<rect x="494.01" y="631.88" class="st11" width="151.96" height="11.92"/>
							<rect x="494.01" y="652.21" class="st11" width="116.15" height="11.92"/>
							<rect x="494.01" y="672.55" class="st11" width="138.9" height="11.92"/>
							<rect x="494.01" y="692.89" class="st11" width="112.36" height="11.92"/>
							<rect x="530.28" y="713.22" class="st11" width="127" height="11.92"/>
						</g>
					</g>
					<g>
						<g>
							<rect x="695.77" y="631.88" class="st10" width="151.96" height="11.92"/>
							<rect x="695.77" y="652.21" class="st10" width="116.15" height="11.92"/>
							<rect x="695.77" y="672.55" class="st10" width="138.9" height="11.92"/>
							<rect x="695.77" y="692.89" class="st10" width="112.36" height="11.92"/>
							<rect x="732.05" y="713.22" class="st10" width="127" height="11.92"/>
							<rect x="732.05" y="737.69" class="st10" width="115.69" height="11.92"/>
							<rect x="695.77" y="758.02" class="st10" width="116.15" height="11.92"/>
							<rect x="695.77" y="778.36" class="st10" width="138.9" height="11.92"/>
							<rect x="695.77" y="798.7" class="st10" width="112.36" height="11.92"/>
							<rect x="695.77" y="819.03" class="st10" width="163.27" height="11.92"/>
							<rect x="745.6" y="842.34" class="st10" width="138.9" height="11.92"/>
							<rect x="695.77" y="865.64" class="st10" width="163.27" height="11.92"/>
						</g>
						<g>
							<rect x="695.77" y="899.69" class="st10" width="151.96" height="11.92"/>
							<rect x="695.77" y="920.03" class="st10" width="116.15" height="11.92"/>
							<rect x="695.77" y="940.36" class="st10" width="138.9" height="11.92"/>
							<rect x="695.77" y="960.7" class="st10" width="112.36" height="11.92"/>
							<rect x="732.05" y="981.04" class="st10" width="127" height="11.92"/>
						</g>
					</g>
				</g>
			</g>
			<g>
				<g>
					<rect x="1186.86" y="198.98" class="st2" width="682.77" height="417.31"/>
					<rect x="1206.85" y="218.28" class="st3" width="642.8" height="378.72"/>
				</g>
				<rect x="1252.46" y="257.36" class="st11" width="324.92" height="186.6"/>
				<rect x="1256.08" y="465.55" class="st11" width="150.58" height="100.23"/>
				<rect x="1428.05" y="465.55" class="st11" width="150.58" height="100.23"/>
				<g>
					<rect x="1614.66" y="257.36" class="st6" width="195.33" height="318.69"/>
					<rect x="1627.88" y="279.33" class="st11" width="131.38" height="13.29"/>
					<rect x="1627.88" y="302.01" class="st11" width="100.42" height="13.29"/>
					<rect x="1627.88" y="324.69" class="st11" width="120.09" height="13.29"/>
					<rect x="1627.88" y="347.37" class="st11" width="97.14" height="13.29"/>
					<rect x="1627.88" y="370.05" class="st11" width="141.16" height="13.29"/>
					<rect x="1627.88" y="397.32" class="st11" width="131.38" height="13.29"/>
					<rect x="1627.88" y="420" class="st11" width="100.42" height="13.29"/>
					<rect x="1627.88" y="442.68" class="st11" width="120.09" height="13.29"/>
					<rect x="1627.88" y="465.36" class="st11" width="97.14" height="13.29"/>
					<rect x="1627.88" y="488.04" class="st11" width="141.16" height="13.29"/>
					<rect x="1670.96" y="514.02" class="st11" width="120.09" height="13.29"/>
					<rect x="1627.88" y="540.01" class="st11" width="141.16" height="13.29"/>
				</g>
				<path class="st6" d="M1262.09,426.65l2.97-111.34c0,0,19.5,68.03,40.44,68.03c20.94,0,26.65-78.46,50.55-74.68
					c23.9,3.78,33.56,95.31,56.9,95.31c29.03,0,22.02-53.31,45.85-53.31s22.67,32.68,44.55,32.68c34.67,0,60.45-90.71,60.45-90.71
					v136.98L1262.09,426.65z"/>
			</g>
			<g>
				<g>
					<path class="st12" d="M2337.26,1180.45v102.28c0,11.37,139.07,11.37,139.07,0v-102.28H2337.26z"/>
					<g>
						<circle class="st13" cx="2406.79" cy="1219.08" r="17.17"/>
						<path class="st13" d="M2406.79,1270.79L2406.79,1270.79c-3.89,0-7.04-3.15-7.04-7.04v-39.38h14.07v39.38
							C2413.83,1267.64,2410.68,1270.79,2406.79,1270.79z"/>
					</g>
					<path class="st12" d="M2464.14,1174.32h-14.07v-35.37c0-23.86-19.41-43.27-43.27-43.27s-43.27,19.41-43.27,43.27v6.89h-14.07
						v-6.89c0-31.62,25.73-57.35,57.35-57.35c31.62,0,57.35,25.73,57.35,57.35V1174.32z"/>
				</g>
				<g>
					<circle class="st3" cx="2480.27" cy="1278.86" r="47.28"/>
					<path d="M2480.27,1319.77c-22.56,0-40.91-18.35-40.91-40.91c0-22.56,18.35-40.91,40.91-40.91c22.56,0,40.91,18.35,40.91,40.91
						C2521.18,1301.42,2502.83,1319.77,2480.27,1319.77z M2480.27,1241.34c-20.69,0-37.52,16.83-37.52,37.52
						s16.83,37.52,37.52,37.52s37.52-16.83,37.52-37.52S2500.96,1241.34,2480.27,1241.34z"/>
					<g>
						<path d="M2480.27,1293.52L2480.27,1293.52c-3.01,0-5.5-2.33-5.71-5.33l-1.76-25.6c-0.3-4.32,3.13-7.99,7.46-7.99l0,0
							c4.33,0,7.76,3.67,7.46,7.99l-1.76,25.6C2485.77,1291.19,2483.28,1293.52,2480.27,1293.52z"/>
						<path d="M2485.92,1303.69c0,3.12-2.53,5.65-5.65,5.65s-5.65-2.53-5.65-5.65c0-3.12,2.53-5.65,5.65-5.65
							S2485.92,1300.57,2485.92,1303.69z"/>
					</g>
				</g>
			</g>
			<g>
				<path class="st3" d="M672.52,1338.84l-211.46,0c-4.45,0-8.06-3.61-8.06-8.06V1210.8c0-4.45,3.61-8.06,8.06-8.06l211.46,0
					c4.45,0,8.06,3.61,8.06,8.06v119.98C680.58,1335.23,676.98,1338.84,672.52,1338.84z"/>
				<rect x="453" y="1228.44" class="st11" width="227.58" height="23.49"/>
				<path class="st11" d="M505.13,1312.73h-33.46c-2.13,0-3.85,1.72-3.85,3.85l0,0c0,2.13,1.72,3.85,3.85,3.85l33.46,0
					c2.13,0,3.85-1.72,3.85-3.85v0C508.98,1314.45,507.26,1312.73,505.13,1312.73z"/>
				<path class="st11" d="M556.59,1312.73h-33.46c-2.13,0-3.85,1.72-3.85,3.85l0,0c0,2.13,1.72,3.85,3.85,3.85h33.46
					c2.13,0,3.85-1.72,3.85-3.85l0,0C560.44,1314.45,558.72,1312.73,556.59,1312.73z"/>
				<path class="st11" d="M608.05,1312.73h-33.46c-2.13,0-3.85,1.72-3.85,3.85l0,0c0,2.13,1.72,3.85,3.85,3.85h33.46
					c2.13,0,3.85-1.72,3.85-3.85l0,0C611.9,1314.45,610.17,1312.73,608.05,1312.73z"/>
				<path class="st11" d="M659.5,1312.73h-33.46c-2.13,0-3.85,1.72-3.85,3.85l0,0c0,2.13,1.72,3.85,3.85,3.85h33.46
					c2.13,0,3.85-1.72,3.85-3.85l0,0C663.36,1314.45,661.63,1312.73,659.5,1312.73z"/>
				<path class="st11" d="M470.13,1209.65L470.13,1209.65c-2.35,0-4.25,1.9-4.25,4.25v1.49c0,2.35,1.9,4.25,4.25,4.25l0,0
					c2.35,0,4.25-1.9,4.25-4.25v-1.49C474.38,1211.55,472.48,1209.65,470.13,1209.65z"/>
				<path class="st11" d="M479.29,1214.65L479.29,1214.65c0,2.76,2.24,5,5,5h17.71c2.76,0,5-2.24,5-5l0,0c0-2.76-2.24-5-5-5h-17.71
					C481.52,1209.65,479.29,1211.89,479.29,1214.65z"/>
				<path class="st11" d="M476.96,1264.56l22.88,0c3.67,0,6.64,2.97,6.64,6.64v19.72c0,3.67-2.97,6.64-6.64,6.64h-22.88
					c-3.67,0-6.64-2.97-6.64-6.64v-19.72C470.32,1267.54,473.3,1264.56,476.96,1264.56z"/>
			</g>
			<g>
				<path class="st3" d="M2218.15,479h-196.48c-4.14,0-7.49-3.35-7.49-7.49V360.03c0-4.14,3.35-7.49,7.49-7.49h196.48
					c4.14,0,7.49,3.35,7.49,7.49v111.48C2225.64,475.65,2222.29,479,2218.15,479z"/>
				<rect x="2014.18" y="376.42" class="st11" width="211.46" height="21.82"/>
				<path class="st11" d="M2062.61,454.74h-31.09c-1.98,0-3.58,1.6-3.58,3.58l0,0c0,1.98,1.6,3.58,3.58,3.58h31.09
					c1.98,0,3.58-1.6,3.58-3.58l0,0C2066.19,456.34,2064.59,454.74,2062.61,454.74z"/>
				<path class="st11" d="M2110.43,454.74h-31.09c-1.98,0-3.58,1.6-3.58,3.58l0,0c0,1.98,1.6,3.58,3.58,3.58h31.09
					c1.98,0,3.58-1.6,3.58-3.58l0,0C2114.01,456.34,2112.4,454.74,2110.43,454.74z"/>
				<path class="st11" d="M2158.24,454.74h-31.09c-1.98,0-3.58,1.6-3.58,3.58l0,0c0,1.98,1.6,3.58,3.58,3.58h31.09
					c1.98,0,3.58-1.6,3.58-3.58l0,0C2161.82,456.34,2160.22,454.74,2158.24,454.74z"/>
				<path class="st11" d="M2206.05,454.74h-31.09c-1.98,0-3.58,1.6-3.58,3.58l0,0c0,1.98,1.6,3.58,3.58,3.58l31.09,0
					c1.98,0,3.58-1.6,3.58-3.58l0,0C2209.63,456.34,2208.03,454.74,2206.05,454.74z"/>
				<path class="st11" d="M2030.09,358.96L2030.09,358.96c-2.18,0-3.95,1.77-3.95,3.95v1.39c0,2.18,1.77,3.95,3.95,3.95l0,0
					c2.18,0,3.95-1.77,3.95-3.95v-1.39C2034.04,360.73,2032.27,358.96,2030.09,358.96z"/>
				<path class="st11" d="M2038.6,363.6L2038.6,363.6c0,2.56,2.08,4.64,4.64,4.64h16.46c2.56,0,4.64-2.08,4.64-4.64l0,0
					c0-2.56-2.08-4.64-4.64-4.64h-16.46C2040.68,358.96,2038.6,361.04,2038.6,363.6z"/>
				<path class="st11" d="M2036.44,409.98h21.26c3.41,0,6.17,2.76,6.17,6.17v18.33c0,3.41-2.76,6.17-6.17,6.17h-21.26
					c-3.41,0-6.17-2.76-6.17-6.17v-18.33C2030.27,412.74,2033.03,409.98,2036.44,409.98z"/>
			</g>
			<g>
				<rect x="757.52" y="315.31" class="st11" width="262.06" height="156.7"/>
				<g>
					<path class="st14" d="M930.75,394.33h-21.56c-1.5-15.75-14.77-28.07-30.91-28.07v-21.5
						C906.3,344.76,929.2,366.69,930.75,394.33z"/>
					<path class="st6" d="M930.84,397.32c0,29.04-23.53,52.57-52.56,52.57c-29.04,0-52.57-23.53-52.57-52.57
						c0-29.03,23.53-52.56,52.57-52.56v21.5c-17.16,0-31.07,13.91-31.07,31.06c0,17.16,13.91,31.07,31.07,31.07
						c17.15,0,31.06-13.91,31.06-31.07c0-1.01-0.05-2-0.14-2.98h21.56C930.8,395.32,930.84,396.31,930.84,397.32z"/>
				</g>
			</g>
			<g>
				<g>
					<path class="st15" d="M2620.12,2037.17h-165.81v-205.64h165.81V2037.17z M2459.66,2031.82h155.11v-194.94h-155.11V2031.82z"/>
				</g>
				<g>
					<rect x="2487.07" y="1863.83" class="st15" width="160.46" height="200.29"/>
					
						<rect x="2512.03" y="1896.71" transform="matrix(-1 -1.224647e-16 1.224647e-16 -1 5107.0654 3806.4524)" class="st16" width="83" height="13.03"/>
					
						<rect x="2512.03" y="1927.32" transform="matrix(-1 -1.224647e-16 1.224647e-16 -1 5131.6123 3867.6626)" class="st16" width="107.55" height="13.03"/>
					
						<rect x="2512.03" y="1957.92" transform="matrix(-1 -1.224647e-16 1.224647e-16 -1 5131.6123 3928.8726)" class="st16" width="107.55" height="13.03"/>
					
						<rect x="2512.03" y="1988.53" transform="matrix(-1 -1.224647e-16 1.224647e-16 -1 5131.6123 3990.0825)" class="st16" width="107.55" height="13.03"/>
					
						<rect x="2512.03" y="2019.13" transform="matrix(-1 -1.224647e-16 1.224647e-16 -1 5131.6123 4051.2925)" class="st16" width="107.55" height="13.03"/>
				</g>
			</g>
			<g>
				<path class="st11" d="M359.47,1785.87l-104.43,180.88c-5.41,9.37,1.35,21.09,12.18,21.09h208.86
					c10.82,0,17.59-11.72,12.18-21.09l-104.43-180.88C378.41,1776.5,364.88,1776.5,359.47,1785.87z"/>
				<path d="M476.07,1978.9H267.21c-1.88,0-3.5-0.94-4.43-2.57c-0.94-1.62-0.94-3.49,0.01-5.13l104.42-180.86
					c0.93-1.62,2.55-2.56,4.43-2.56c1.89,0,3.5,0.94,4.44,2.57l104.43,180.87c0.94,1.62,0.94,3.49,0,5.13
					C479.57,1977.97,477.96,1978.9,476.07,1978.9z M475.35,1974.2C475.35,1974.2,475.35,1974.2,475.35,1974.2L475.35,1974.2z
					 M268.66,1972.95h205.96l-102.98-178.36L268.66,1972.95z"/>
				<g>
					<path d="M371.94,1923.73L371.94,1923.73c-6,0-10.97-4.64-11.38-10.62l-3.5-51.02c-0.59-8.62,6.24-15.94,14.88-15.94l0,0
						c8.64,0,15.47,7.32,14.88,15.94l-3.5,51.02C382.91,1919.09,377.94,1923.73,371.94,1923.73z"/>
					
						<ellipse transform="matrix(0.7071 -0.7071 0.7071 0.7071 -1265.6842 832.3923)" cx="371.94" cy="1944.01" rx="11.25" ry="11.25"/>
				</g>
			</g>
		</g>
	</g>
</g>
<g id="tube">
	<g>
		<defs>
			<rect id="SVGID_1_" x="657.28" y="1855.04" width="1879.94" height="644.96"/>
		</defs>
		<clipPath id="SVGID_00000011025761030475099020000007543912079085260730_">
			<use xlink:href="#SVGID_1_"  style="overflow:visible;"/>
		</clipPath>
		<g style="clip-path:url(#SVGID_00000011025761030475099020000007543912079085260730_);">
			<path class="st18" d="M757.52,2119.98v623.84c0,442.31,1612.07,442.31,1612.07,0v-623.84H757.52z"/>
			<path class="st19" d="M2369.59,2119.83c0,132.91-298.12,242.96-686.7,261.9c-38.94,1.91-78.79,2.89-119.34,2.89
				c-445.16,0-806.04-118.56-806.04-264.79c0-146.25,360.87-264.79,806.04-264.79c40.55,0,80.4,0.98,119.34,2.89
				C2071.47,1876.87,2369.59,1986.91,2369.59,2119.83z"/>
			<path class="st3" d="M1823.85,1869.16v501.35c317.44-35.56,545.75-134.36,545.75-250.67
				C2369.59,2003.51,2141.29,1904.71,1823.85,1869.16z"/>
			<g>
				<defs>
					<ellipse id="SVGID_00000023959568447063921310000010446303181137388698_" cx="1563.56" cy="2119.83" rx="806.04" ry="264.79"/>
				</defs>
				<clipPath id="SVGID_00000135681908157436929090000009955124465700918156_">
					<use xlink:href="#SVGID_00000023959568447063921310000010446303181137388698_"  style="overflow:visible;"/>
				</clipPath>
				<g style="opacity:0.5;clip-path:url(#SVGID_00000135681908157436929090000009955124465700918156_);">
					<defs>
						<filter id="Adobe_OpacityMaskFilter" filterUnits="userSpaceOnUse" x="902.27" y="2037.37" width="179.8" height="380.7">
							<feFlood  style="flood-color:white;flood-opacity:1" result="back"/>
							<feBlend  in="SourceGraphic" in2="back" mode="normal"/>
						</filter>
					</defs>
					
						<mask maskUnits="userSpaceOnUse" x="902.27" y="2037.37" width="179.8" height="380.7" id="SVGID_00000128470293375819870770000017031326087210972851_">
						<g class="st21">
							<defs>
								
									<filter id="Adobe_OpacityMaskFilter_00000132059211587451198390000006186328738962097030_" filterUnits="userSpaceOnUse" x="902.27" y="2037.37" width="179.8" height="380.7">
									<feFlood  style="flood-color:white;flood-opacity:1" result="back"/>
									<feBlend  in="SourceGraphic" in2="back" mode="normal"/>
								</filter>
							</defs>
							
								<mask maskUnits="userSpaceOnUse" x="902.27" y="2037.37" width="179.8" height="380.7" id="SVGID_00000128470293375819870770000017031326087210972851_">
								<g style="filter:url(#Adobe_OpacityMaskFilter_00000132059211587451198390000006186328738962097030_);">
								</g>
							</mask>
							
								<linearGradient id="SVGID_00000067236314763618019130000006164154249009387188_" gradientUnits="userSpaceOnUse" x1="992.176" y1="2799.2668" x2="992.176" y2="1819.1359">
								<stop  offset="0" style="stop-color:#000000"/>
								<stop  offset="1" style="stop-color:#FFFFFF"/>
							</linearGradient>
							
								<polygon style="mask:url(#SVGID_00000128470293375819870770000017031326087210972851_);fill:url(#SVGID_00000067236314763618019130000006164154249009387188_);" points="
								902.27,2064.36 902.27,2418.07 1082.08,2418.07 1082.08,2037.37 							"/>
						</g>
					</mask>
					
						<linearGradient id="SVGID_00000080174130599685964130000012321342237025276043_" gradientUnits="userSpaceOnUse" x1="992.176" y1="2799.2668" x2="992.176" y2="1819.1359">
						<stop  offset="0" style="stop-color:#FFFFFF"/>
						<stop  offset="1" style="stop-color:#000000"/>
					</linearGradient>
					<polygon style="fill:url(#SVGID_00000080174130599685964130000012321342237025276043_);" points="902.27,2064.36 
						902.27,2418.07 1082.08,2418.07 1082.08,2037.37 					"/>
					<defs>
						
							<filter id="Adobe_OpacityMaskFilter_00000029752729138436670420000003286766757141100168_" filterUnits="userSpaceOnUse" x="1231.36" y="2037.37" width="179.8" height="380.7">
							<feFlood  style="flood-color:white;flood-opacity:1" result="back"/>
							<feBlend  in="SourceGraphic" in2="back" mode="normal"/>
						</filter>
					</defs>
					
						<mask maskUnits="userSpaceOnUse" x="1231.36" y="2037.37" width="179.8" height="380.7" id="SVGID_00000112629178859198060470000001728848192303028868_">
						<g style="filter:url(#Adobe_OpacityMaskFilter_00000029752729138436670420000003286766757141100168_);">
							<defs>
								
									<filter id="Adobe_OpacityMaskFilter_00000120555920774211364590000009291890904427207853_" filterUnits="userSpaceOnUse" x="1231.36" y="2037.37" width="179.8" height="380.7">
									<feFlood  style="flood-color:white;flood-opacity:1" result="back"/>
									<feBlend  in="SourceGraphic" in2="back" mode="normal"/>
								</filter>
							</defs>
							
								<mask maskUnits="userSpaceOnUse" x="1231.36" y="2037.37" width="179.8" height="380.7" id="SVGID_00000112629178859198060470000001728848192303028868_">
								<g style="filter:url(#Adobe_OpacityMaskFilter_00000120555920774211364590000009291890904427207853_);">
								</g>
							</mask>
							
								<linearGradient id="SVGID_00000073708770824676434570000013707564329315854516_" gradientUnits="userSpaceOnUse" x1="1321.2581" y1="2799.2668" x2="1321.2581" y2="1819.1359">
								<stop  offset="0" style="stop-color:#000000"/>
								<stop  offset="1" style="stop-color:#FFFFFF"/>
							</linearGradient>
							
								<polygon style="mask:url(#SVGID_00000112629178859198060470000001728848192303028868_);fill:url(#SVGID_00000073708770824676434570000013707564329315854516_);" points="
								1411.16,2064.36 1411.16,2418.07 1231.36,2418.07 1231.36,2037.37 							"/>
						</g>
					</mask>
					
						<linearGradient id="SVGID_00000036939945548970310350000010362299075996027295_" gradientUnits="userSpaceOnUse" x1="1321.2581" y1="2799.2668" x2="1321.2581" y2="1819.1359">
						<stop  offset="0" style="stop-color:#FFFFFF"/>
						<stop  offset="1" style="stop-color:#000000"/>
					</linearGradient>
					<polygon style="fill:url(#SVGID_00000036939945548970310350000010362299075996027295_);" points="1411.16,2064.36 
						1411.16,2418.07 1231.36,2418.07 1231.36,2037.37 					"/>
					<defs>
						
							<filter id="Adobe_OpacityMaskFilter_00000113313447052545751870000005764173171367787675_" filterUnits="userSpaceOnUse" x="1240.39" y="2243.96" width="201.11" height="404.26">
							<feFlood  style="flood-color:white;flood-opacity:1" result="back"/>
							<feBlend  in="SourceGraphic" in2="back" mode="normal"/>
						</filter>
					</defs>
					
						<mask maskUnits="userSpaceOnUse" x="1240.39" y="2243.96" width="201.11" height="404.26" id="SVGID_00000037681661906476267710000017209652757766867899_">
						<g style="filter:url(#Adobe_OpacityMaskFilter_00000113313447052545751870000005764173171367787675_);">
							<defs>
								
									<filter id="Adobe_OpacityMaskFilter_00000031904888001349689140000015750507670417220020_" filterUnits="userSpaceOnUse" x="1240.39" y="2243.96" width="201.11" height="404.26">
									<feFlood  style="flood-color:white;flood-opacity:1" result="back"/>
									<feBlend  in="SourceGraphic" in2="back" mode="normal"/>
								</filter>
							</defs>
							
								<mask maskUnits="userSpaceOnUse" x="1240.39" y="2243.96" width="201.11" height="404.26" id="SVGID_00000037681661906476267710000017209652757766867899_">
								<g style="filter:url(#Adobe_OpacityMaskFilter_00000031904888001349689140000015750507670417220020_);">
								</g>
							</mask>
							
								<linearGradient id="SVGID_00000057835348222434073850000011580144360657517460_" gradientUnits="userSpaceOnUse" x1="1340.9435" y1="2756.5215" x2="1340.9435" y2="1975.8145">
								<stop  offset="0" style="stop-color:#000000"/>
								<stop  offset="1" style="stop-color:#FFFFFF"/>
							</linearGradient>
							
								<polygon style="mask:url(#SVGID_00000037681661906476267710000017209652757766867899_);fill:url(#SVGID_00000057835348222434073850000011580144360657517460_);" points="
								1441.5,2243.96 1441.5,2648.22 1240.39,2648.22 1244.69,2256.76 							"/>
						</g>
					</mask>
					
						<linearGradient id="SVGID_00000026864228811050300840000010222013006700194179_" gradientUnits="userSpaceOnUse" x1="1340.9435" y1="2756.5215" x2="1340.9435" y2="1975.8145">
						<stop  offset="0" style="stop-color:#FFFFFF"/>
						<stop  offset="1" style="stop-color:#000000"/>
					</linearGradient>
					<polygon style="fill:url(#SVGID_00000026864228811050300840000010222013006700194179_);" points="1441.5,2243.96 
						1441.5,2648.22 1240.39,2648.22 1244.69,2256.76 					"/>
					<defs>
						
							<filter id="Adobe_OpacityMaskFilter_00000075148643221209366000000012694412785689157297_" filterUnits="userSpaceOnUse" x="1698.52" y="2246" width="201.11" height="391.46">
							<feFlood  style="flood-color:white;flood-opacity:1" result="back"/>
							<feBlend  in="SourceGraphic" in2="back" mode="normal"/>
						</filter>
					</defs>
					
						<mask maskUnits="userSpaceOnUse" x="1698.52" y="2246" width="201.11" height="391.46" id="SVGID_00000114039536170400308920000003492620914629994425_">
						<g style="filter:url(#Adobe_OpacityMaskFilter_00000075148643221209366000000012694412785689157297_);">
							<defs>
								
									<filter id="Adobe_OpacityMaskFilter_00000165229065596559657850000014826378235557659556_" filterUnits="userSpaceOnUse" x="1698.52" y="2246" width="201.11" height="391.46">
									<feFlood  style="flood-color:white;flood-opacity:1" result="back"/>
									<feBlend  in="SourceGraphic" in2="back" mode="normal"/>
								</filter>
							</defs>
							
								<mask maskUnits="userSpaceOnUse" x="1698.52" y="2246" width="201.11" height="391.46" id="SVGID_00000114039536170400308920000003492620914629994425_">
								<g style="filter:url(#Adobe_OpacityMaskFilter_00000165229065596559657850000014826378235557659556_);">
								</g>
							</mask>
							
								<linearGradient id="SVGID_00000114062930797755522880000005271683243340546950_" gradientUnits="userSpaceOnUse" x1="1799.0775" y1="2756.521" x2="1799.0775" y2="1975.8146">
								<stop  offset="0" style="stop-color:#000000"/>
								<stop  offset="1" style="stop-color:#FFFFFF"/>
							</linearGradient>
							
								<polygon style="mask:url(#SVGID_00000114039536170400308920000003492620914629994425_);fill:url(#SVGID_00000114062930797755522880000005271683243340546950_);" points="
								1899.63,2255.68 1899.63,2637.46 1698.52,2637.46 1702.83,2246 							"/>
						</g>
					</mask>
					
						<linearGradient id="SVGID_00000125562248963370474100000017184577331032580007_" gradientUnits="userSpaceOnUse" x1="1799.0775" y1="2756.521" x2="1799.0775" y2="1975.8146">
						<stop  offset="0" style="stop-color:#FFFFFF"/>
						<stop  offset="1" style="stop-color:#000000"/>
					</linearGradient>
					<polygon style="fill:url(#SVGID_00000125562248963370474100000017184577331032580007_);" points="1899.63,2255.68 
						1899.63,2637.46 1698.52,2637.46 1702.83,2246 					"/>
					<defs>
						
							<filter id="Adobe_OpacityMaskFilter_00000021829407431946174170000011238912311989362615_" filterUnits="userSpaceOnUse" x="2099.66" y="2057.8" width="105.39" height="391.46">
							<feFlood  style="flood-color:white;flood-opacity:1" result="back"/>
							<feBlend  in="SourceGraphic" in2="back" mode="normal"/>
						</filter>
					</defs>
					
						<mask maskUnits="userSpaceOnUse" x="2099.66" y="2057.8" width="105.39" height="391.46" id="SVGID_00000104683057601471035010000016174687617023262622_">
						<g style="filter:url(#Adobe_OpacityMaskFilter_00000021829407431946174170000011238912311989362615_);">
							<defs>
								
									<filter id="Adobe_OpacityMaskFilter_00000029766807893410057850000017116371848832944301_" filterUnits="userSpaceOnUse" x="2099.66" y="2057.8" width="105.39" height="391.46">
									<feFlood  style="flood-color:white;flood-opacity:1" result="back"/>
									<feBlend  in="SourceGraphic" in2="back" mode="normal"/>
								</filter>
							</defs>
							
								<mask maskUnits="userSpaceOnUse" x="2099.66" y="2057.8" width="105.39" height="391.46" id="SVGID_00000104683057601471035010000016174687617023262622_">
								<g style="filter:url(#Adobe_OpacityMaskFilter_00000029766807893410057850000017116371848832944301_);">
								</g>
							</mask>
							
								<linearGradient id="SVGID_00000003787795981152453250000006456129853146615705_" gradientUnits="userSpaceOnUse" x1="452.7581" y1="2594.762" x2="457.8654" y2="2063.5923" gradientTransform="matrix(-1 0 0 1 2608.3904 0)">
								<stop  offset="0" style="stop-color:#000000"/>
								<stop  offset="1" style="stop-color:#FFFFFF"/>
							</linearGradient>
							
								<polygon style="mask:url(#SVGID_00000104683057601471035010000016174687617023262622_);fill:url(#SVGID_00000003787795981152453250000006456129853146615705_);" points="
								2205.05,2058.88 2205.05,2449.26 2099.66,2449.26 2101.91,2057.8 2110.42,2057.93 2123.31,2102.97 2146.98,2058.21 							
								"/>
						</g>
					</mask>
					
						<linearGradient id="SVGID_00000137127634660483118030000012355830909385707701_" gradientUnits="userSpaceOnUse" x1="452.7581" y1="2594.762" x2="457.8654" y2="2063.5923" gradientTransform="matrix(-1 0 0 1 2608.3904 0)">
						<stop  offset="0" style="stop-color:#FFFFFF"/>
						<stop  offset="1" style="stop-color:#000000"/>
					</linearGradient>
					<polygon style="fill:url(#SVGID_00000137127634660483118030000012355830909385707701_);" points="2205.05,2058.88 
						2205.05,2449.26 2099.66,2449.26 2101.91,2057.8 2110.42,2057.93 2123.31,2102.97 2146.98,2058.21 					"/>
					<defs>
						
							<filter id="Adobe_OpacityMaskFilter_00000170996194763575680040000001832441527480854146_" filterUnits="userSpaceOnUse" x="1852.31" y="2061.03" width="78.51" height="392.53">
							<feFlood  style="flood-color:white;flood-opacity:1" result="back"/>
							<feBlend  in="SourceGraphic" in2="back" mode="normal"/>
						</filter>
					</defs>
					
						<mask maskUnits="userSpaceOnUse" x="1852.31" y="2061.03" width="78.51" height="392.53" id="SVGID_00000127012120320830838340000001473872589911307156_">
						<g style="filter:url(#Adobe_OpacityMaskFilter_00000170996194763575680040000001832441527480854146_);">
							<defs>
								
									<filter id="Adobe_OpacityMaskFilter_00000140705019700687236670000009785084345782205835_" filterUnits="userSpaceOnUse" x="1852.31" y="2061.03" width="78.51" height="392.53">
									<feFlood  style="flood-color:white;flood-opacity:1" result="back"/>
									<feBlend  in="SourceGraphic" in2="back" mode="normal"/>
								</filter>
							</defs>
							
								<mask maskUnits="userSpaceOnUse" x="1852.31" y="2061.03" width="78.51" height="392.53" id="SVGID_00000127012120320830838340000001473872589911307156_">
								<g style="filter:url(#Adobe_OpacityMaskFilter_00000140705019700687236670000009785084345782205835_);">
								</g>
							</mask>
							
								<linearGradient id="SVGID_00000039816273235475999870000012806720000494560666_" gradientUnits="userSpaceOnUse" x1="713.5447" y1="2599.1267" x2="718.6592" y2="2067.2144" gradientTransform="matrix(-1 0 0 1 2608.3904 0)">
								<stop  offset="0" style="stop-color:#000000"/>
								<stop  offset="1" style="stop-color:#FFFFFF"/>
							</linearGradient>
							
								<polygon style="mask:url(#SVGID_00000127012120320830838340000001473872589911307156_);fill:url(#SVGID_00000039816273235475999870000012806720000494560666_);" points="
								1930.82,2062.1 1929.74,2453.56 1852.31,2453.56 1853.97,2062.1 1860.91,2062.1 1869.68,2107.27 1881.35,2061.03 							"/>
						</g>
					</mask>
					
						<linearGradient id="SVGID_00000021089511492154898100000015487665084053191867_" gradientUnits="userSpaceOnUse" x1="713.5447" y1="2599.1267" x2="718.6592" y2="2067.2144" gradientTransform="matrix(-1 0 0 1 2608.3904 0)">
						<stop  offset="0" style="stop-color:#FFFFFF"/>
						<stop  offset="1" style="stop-color:#000000"/>
					</linearGradient>
					<polygon style="fill:url(#SVGID_00000021089511492154898100000015487665084053191867_);" points="1930.82,2062.1 
						1929.74,2453.56 1852.31,2453.56 1853.97,2062.1 1860.91,2062.1 1869.68,2107.27 1881.35,2061.03 					"/>
				</g>
			</g>
		</g>
	</g>
</g>
<g id="people">
	<g>
		<g>
			<path class="st45" d="M1019.58,980.7c0,0,73.76-71.71,168.16-57.96c94.4,13.74,108.24,121.02,108.24,121.02L1019.58,980.7z"/>
			<path class="st46" d="M1113.34,1305.89l122.99,674.47c4.32,20.8,82.56,16.22,75.44-3.82l-50.9-670.64H1113.34z"/>
			<path class="st46" d="M1006.41,1305.89l-9.07,677.15c3.58,12.08,58.4,23.19,70.36,0l89.12-677.15H1006.41z"/>
			<g>
				<g>
					<path class="st46" d="M920.84,2017.41l48.3-38.25c13.49-27.37,72.88-23.98,65.12,9.33c23.33,3.47,35.4-8.13,35.4-8.13l7.93,63
						l-59.98,17.18L920.84,2017.41z"/>
				</g>
				<path class="st46" d="M1018.2,2060.53c0-0.29,0.01-0.57,0.01-0.85c-0.49-32.02-26.85-57.98-58.88-57.98
					c-32.02,0-57.58,25.96-57.09,57.98c0,0.29,0.03,0.57,0.04,0.85C911.89,2076.5,942.98,2080.66,1018.2,2060.53z"/>
			</g>
			<g>
				<g>
					<path class="st46" d="M1388.63,2017.41l-48.3-38.25c-13.49-27.37-72.88-23.98-65.12,9.33c-23.33,3.47-35.4-8.13-35.4-8.13
						l-7.93,63l59.98,17.18L1388.63,2017.41z"/>
				</g>
				<path class="st46" d="M1291.28,2060.53c0-0.29-0.01-0.57-0.01-0.85c0.49-32.02,26.85-57.98,58.88-57.98
					c32.02,0,57.58,25.96,57.09,57.98c0,0.29-0.03,0.57-0.04,0.85C1397.58,2076.5,1366.49,2080.66,1291.28,2060.53z"/>
			</g>
			<path class="st47" d="M1259.93,1174.2c-2.01,50.28-1.63,94.3,1,131.67c-35.36,51.54-248.03,17.93-255.43,0
				c3.26-51.79,7.27-102.08,12.79-149.6c3.26-28.34,7.02-55.68,11.54-81.76c2.88-17.05,6.14-33.61,9.66-49.53
				c20.31-78.75,74.74-101.07,129.91-100.44c55.55,0.63,100.44,35.11,100.44,100.44c-2.76,29.97-5.01,58.56-6.77,85.77
				C1261.68,1132.82,1260.56,1154.01,1259.93,1174.2z"/>
			<path class="st48" d="M1263.07,1110.75c-1.38,22.07-2.51,43.26-3.13,63.45c-26.08-12.41-72.86-28.84-137.69-27.96
				c-54.55,0.75-86.27,5.52-103.95,10.03c3.26-28.34,7.02-55.68,11.54-81.76L1263.07,1110.75z"/>
			<path class="st49" d="M1205.51,1090.18c-8.4,5.52-19.81,10.79-32.98,15.3c-37.87,13.29-91.16,21.44-135.81,18.18
				c-38.37-2.63-70.47-13.79-81.01-37.12c-15.67-58.81,96.81-140.95,148.1-148.72c-31.1,36.74-41.88,69.85-45.52,90.29
				c-2.51,13.67-1.75,21.82-1.75,21.82s13.29-2.88,33.1-4.39c26.08-1.88,63.45-1.38,96.68,11.16
				C1199.86,1064.35,1212.53,1077.64,1205.51,1090.18z"/>
			<path class="st48" d="M1172.53,1105.48c-37.87,13.29-91.16,21.44-135.81,18.18c18.68-4.77,24.45-20.69,11.54-33.86
				c-28.59-31.23-0.75-54.42,10.03-61.7c-2.51,13.67-1.75,21.82-1.75,21.82s13.29-2.88,33.1-4.39L1172.53,1105.48z"/>
			<path class="st50" d="M1081.67,1034.42c0,0-7.31-4.54-9.75-5.81c-17.64-11.44-34.54,13.2-23.64,36.09c0,0,23.56,8.65,33.4-4.33
				C1091.5,1047.4,1081.67,1034.42,1081.67,1034.42z"/>
			<path class="st49" d="M1245.14,955.27c-39.91,7.89-29.34,117.94-29.34,117.94s-80.07-36.54-134.13-38.78
				c-13.77,3.57-36.19,22.26-33.11,32c59.46,57.98,248.97,122.65,253.9,41.92C1304.75,997.73,1245.14,955.27,1245.14,955.27z"/>
			<path class="st50" d="M1205.01,1073.32c7.09-0.73,18.52-4.82,20.13-5.19c5.79-1.34,6.86-7.3,4.01-6.29l-19.64,0.98
				c0,0,7.21-4.93,10.52-9.13c3.31-4.2-0.36-6.14-0.36-6.14l-18.05,8.75c3.17-2.87,12.75-14.53,5.5-16.53
				c-5.04,7.48-13.78,13.45-19.37,18.03C1191.39,1058.81,1201.54,1065.31,1205.01,1073.32z"/>
			<path class="st49" d="M1127.71,929.12c0,0-35.09,36.32,18.56,47.45c53.65,11.13,75.67-27.1,68.26-42.9
				C1189,922.04,1153.48,920.05,1127.71,929.12z"/>
			<path class="st50" d="M1215.84,852.43l-12.17,91.29c-4.51,25.46-87.03,27.96-74.74-4.89l1-4.01l9.15-34.61l15.55-59.44
				L1215.84,852.43z"/>
			<path class="st51" d="M1205.18,890.17c0,0-4.16,54.25-75.24,44.64l9.15-34.61L1205.18,890.17z"/>
			<g>
				<path class="st50" d="M1104.74,795.33c-35.52,46.19-5.3,105.8,40.49,115.95c45.8,10.15,101.09-22.23,113.73-75.89
					c12.64-53.67-14.24-105.4-60.04-115.55C1153.13,709.69,1109.31,736.29,1104.74,795.33z"/>
				<path class="st52" d="M1130.65,801.27c0.12,2.32-1.67,4.3-3.99,4.41c-2.32,0.12-4.3-1.67-4.41-3.99
					c-0.12-2.32,1.67-4.3,3.99-4.41C1128.55,797.17,1130.53,798.95,1130.65,801.27z"/>
				<path class="st52" d="M1205.22,818.01c0.12,2.32-1.67,4.3-3.99,4.41c-2.32,0.12-4.3-1.67-4.41-3.99
					c-0.12-2.32,1.67-4.3,3.99-4.41C1203.13,813.9,1205.1,815.69,1205.22,818.01z"/>
				<path class="st52" d="M1275.09,826.95c-4.82,8.61-10.9,15.98-16.3,21.08c-16.53-24.39-12.78-72.46-12.78-72.46
					s-30.64,18.97-93.78,7.58c-57.6-10.39-73.65-31.83-60.61-65.14c0.06,0.02,0.12,0.05,0.18,0.08
					c12.14,5.18,31.45-8.33,55.98-16.79c31.25-10.77,106.53-22.89,111.36,54.45C1291.11,777.21,1286.89,805.85,1275.09,826.95z"/>
				<path class="st52" d="M1089.35,844.78c0,0,7.59,40.6,59.43,44.18c37.8,2.61,72.16-14.56,86.83-25.65
					c1.53,2.7,2.98,5.4,4.37,7.84c-19.76,51.06-124.78,48.05-124.78,48.05C1097.17,899.84,1084.46,876.25,1089.35,844.78z"/>
				<path class="st52" d="M1245.92,798.13c0,0,4.28,35.51-3.08,50.7c14.37-11.28,23.86-9.46,23.99-9.61
					C1266.96,839.07,1279.77,800.69,1245.92,798.13z"/>
				<path class="st52" d="M1180.55,893.62c1.74-0.92-4.66-35.37-35.98-44.91c-31.32-9.54-48.19,9.41-49.89,20.8
					C1091.97,887.62,1131.12,919.33,1180.55,893.62z M1108.76,862.75c2.38-6.43,12.36-11.34,31.13-5.4
					c18.75,5.97,21.18,14.06,19.61,23.72C1157.92,890.74,1100.94,883.92,1108.76,862.75z"/>
			</g>
			<path d="M1107.83,769.04c0,0,9.05,9.99,60.76,30.23c51.23,20.05,88.15,27.61,93.07,35.58c10.35,16.75-2.01,17.85-7.23,6.56
				c-13.31-5.2-64.23,13.91-88.94-1.7c-15.78-9.97-10.91-26.68-10.91-26.68s-20.49,17.81-34.42,9.6
				c-13.93-8.21-16.41-32.3-16.41-32.3S1103.56,777.1,1107.83,769.04z"/>
			
				<ellipse transform="matrix(0.3402 -0.9403 0.9403 0.3402 18.2751 1744.6796)" class="st50" cx="1252.46" cy="859.32" rx="19.24" ry="18.94"/>
			<path class="st52" d="M1239.99,859.94c-0.14,0-0.28-0.05-0.39-0.14c-0.27-0.22-0.31-0.61-0.09-0.88c0.23-0.29,5.86-7.14,14.8-8.5
				c3.04-0.46,5.42,0.04,7.05,1.49c2.3,2.05,2.22,5.21,2.21,5.34c-0.01,0.35-0.3,0.6-0.65,0.6c-0.35-0.01-0.62-0.3-0.61-0.65
				c0-0.03,0.06-2.72-1.8-4.37c-1.34-1.19-3.36-1.58-6.02-1.18c-8.45,1.28-13.96,7.98-14.01,8.04
				C1240.35,859.86,1240.17,859.94,1239.99,859.94z"/>
			<path class="st52" d="M1138.38,844.02c-0.09,0-0.18-0.01-0.27-0.05c-2.96-1.17-8.02-4.84-5.97-10.34
				c2.46-6.65,15.8-8.71,16.36-8.79c0.35-0.07,0.69,0.2,0.74,0.55c0.05,0.36-0.19,0.69-0.55,0.74c-0.13,0.02-13.14,2.03-15.33,7.95
				c-2.11,5.69,4.93,8.55,5.23,8.67c0.34,0.13,0.5,0.51,0.37,0.85C1138.85,843.85,1138.62,844.01,1138.38,844.02z"/>
		</g>
		<g>
			<g>
				<g>
					<polygon class="st53" points="1360.19,2118.44 1354.36,2183.4 1429.69,2209.07 1439.69,2119.72 					"/>
					<g>
						<g>
							<path class="st54" d="M1263.25,2224.87l61.27-48.74c19.51-30.39,57.63-26.27,61.5,6.04c12.48,10.03,49.68-7.87,49.68-7.87
								l5.55,71.94l-112.6,21.82L1263.25,2224.87z"/>
						</g>
						<path class="st55" d="M1340.39,2265.23c0-0.24,0.01-0.48,0.01-0.71c-0.41-26.82-22.49-48.55-49.3-48.55
							s-47.04,13.46-46.63,40.28c0,0.24,0.02,0.48,0.03,0.71C1244.46,2269.53,1299.89,2277.55,1340.39,2265.23z"/>
					</g>
				</g>
				<path class="st56" d="M1598.17,1385.16c-47.63,279.39-92.65,680.8-155.35,733.29l-4.69,45.6l-83.77-9.57l2.74-36.03
					c-37.88-56.3,29.62-447.62,57.55-733.29H1598.17z"/>
			</g>
			<g>
				<g>
					<polygon class="st53" points="1782.69,2118.44 1788.53,2183.4 1713.19,2209.07 1703.2,2119.72 					"/>
				</g>
				<path class="st56" d="M1553.78,1385.16c29.03,293.87,83.75,682.08,146.45,734.57l5.65,43.9l82.65-9.15l-2.46-37.32
					c37.88-56.3-32.87-446.33-60.8-732H1553.78z"/>
			</g>
			<path class="st3" d="M1744.25,1460.97c5.42,20.35,4.83,33.97-0.15,42.9c-45.98,25.04-302.79,27.09-353.01,5.86
				c-2.19-12.3-4.83-25.04,2.64-45.39c-17.28-8.64-19.03-63.55-13.03-128.99c4.54-51.98,14.06-110.39,24.45-157.69
				c5.42-24.89,11.13-46.71,16.55-62.67c25.48-75.26,44.95-144.51,147-144.51c103.51,0,128.11,78.63,149.2,132.21
				c6.15,15.52,12.59,42.46,18.45,74.97c8.05,44.36,14.93,99.12,18.3,148.76C1759.03,1391.43,1757.42,1447.8,1744.25,1460.97z"/>
			<path class="st57" d="M1377.56,1068.5c0,0,45.84-119.03,190.1-116.29c144.04,2.74,175.5,116.29,175.5,116.29
				s-50.68-98.55-169.57-98.76C1474.83,969.57,1409.21,1013.31,1377.56,1068.5z"/>
			<path class="st48" d="M1754.64,1326.42c-42.46-10.54-117.57-25.48-202.93-26.5c-84.34-0.88-141,20.06-171.01,35.43
				c4.54-51.98,14.06-110.39,24.45-157.69h331.19C1744.39,1222.02,1751.27,1276.78,1754.64,1326.42z"/>
			<path class="st3" d="M1636.77,1227.73c-94.73,50.51-198.39,63.4-244.81,37.33c-24.31-13.62-38.07-35.58-43.49-61.64
				c-16.98-81.7,49.49-202.64,134.26-224.89c29.87-7.91-25.62,186.53-25.62,186.53c96.64-25.48,139.1-27.82,169.11-17.72
				c13.32,4.54,23.13,19.03,26.36,34.85C1656.1,1199.47,1652,1218.22,1636.77,1227.73z"/>
			<g>
				<path class="st58" d="M1457.07,1166.21c-0.25,0-0.5-0.08-0.71-0.26c-0.46-0.39-0.53-1.08-0.14-1.54
					c0.13-0.16,10.1-12.9,12.93-62.26c0.03-0.6,0.55-1.08,1.16-1.03c0.61,0.03,1.07,0.55,1.03,1.16
					c-2.89,50.42-13.01,63.03-13.44,63.54C1457.69,1166.08,1457.38,1166.21,1457.07,1166.21z"/>
			</g>
			<path class="st58" d="M1636.77,1227.73c-94.73,50.51-198.39,63.4-244.81,37.33c-24.31-13.62-38.07-35.58-43.49-61.64
				c17.42,18.3,49.93,44.8,93.12,43.92c56.23-1.02,176.73-50.51,210.99-65.15C1656.1,1199.47,1652,1218.22,1636.77,1227.73z"/>
			<path class="st58" d="M1457.07,1165.11c16.3,12.29,47.33,74.77-6.16,82.28c103.45,31.1,163.75-41.14,163.75-41.14
				S1513.97,1147.88,1457.07,1165.11z"/>
			<path class="st50" d="M1494.78,1188.83c-1.5-0.64-37.71-23.72-37.71-23.72s10.05-48.38,67.55-34.3
				C1582.11,1144.9,1536.55,1206.73,1494.78,1188.83z"/>
			<path class="st3" d="M1777.92,1233.15c-3.51,15.52-10.39,27.24-21.08,33.09c-46.56,25.77-180.24,23.57-260.62-48.31
				c-12.89-15.67-13.03-40.85-3.81-60.47c7.03-15.23,19.47-27.09,35.88-28.99c31.48-3.66,106.88,15.08,144.22,41.58
				c0,0-59.88-200.15-29.58-194.15C1732.68,993.91,1794.91,1158.04,1777.92,1233.15z"/>
			<path class="st58" d="M1672.5,1171.15c-0.42,0-0.83-0.25-1.01-0.66c-8.39-19.07-15.14-50.12-18.42-66.93
				c-0.12-0.61-0.19-0.99-0.21-1.08c-0.14-0.59,0.22-1.18,0.81-1.32c0.59-0.14,1.17,0.21,1.32,0.79c0.02,0.08,0.1,0.49,0.24,1.2
				c3.26,16.72,9.97,47.59,18.28,66.46c0.24,0.56-0.01,1.2-0.56,1.45C1672.8,1171.12,1672.65,1171.15,1672.5,1171.15z"/>
			<path class="st50" d="M1670.74,1168.95c13.12,0.77,19.26-0.12,22.3-0.31c10.94-0.68,14.66-10.87,9.19-9.91l-36.03-3.96
				c0,0,14.58-6.59,21.87-13.03c7.29-6.44,1.18-10.92,1.18-10.92l-35.46,10.17c6.62-4.14,27.55-21.9,14.96-27.52
				c-11.41,11.72-37.96,24.46-49.5,30.91C1625.57,1147.21,1651.06,1154.58,1670.74,1168.95z"/>
			<path class="st58" d="M1777.92,1233.15c-3.51,15.52-10.39,27.24-21.08,33.09c-46.56,25.77-180.24,23.57-260.62-48.31
				c-12.89-15.67-13.03-40.85-3.81-60.47c3.08,16.4,9.67,40.85,22.84,51.1C1534.72,1223.63,1718.33,1283.37,1777.92,1233.15z"/>
			<path class="st58" d="M1537.64,1482.92c-87.51,0-143.65-16.97-144.35-17.18c-0.77-0.24-1.21-1.06-0.97-1.83
				c0.24-0.77,1.06-1.21,1.83-0.97c0.87,0.27,88.11,26.61,214.86,13.3c0.82-0.09,1.52,0.5,1.61,1.3c0.08,0.8-0.5,1.53-1.3,1.61
				C1583.7,1481.85,1559.67,1482.92,1537.64,1482.92z"/>
			<path d="M1717.76,907.46c-1.43,46.89-49.19,86.98-87.3,110.17c-44.37,27-64.89,27.66-136.76-19.59
				c-33.55-22.05-58.28-54.62-65.42-84.73c-15.6-65.22,66.47-203.52,146.32-203.52S1720.41,824.24,1717.76,907.46z"/>
			<g>
				<path class="st59" d="M1630.15,994.14c-6.49,37.82-91.91,37.82-101.9,0l5.98-64.88h89.93L1630.15,994.14z"/>
				<path class="st50" d="M1668.26,868.23c-0.58,8.06-1.82,15.91-3.55,23.35c-8.54,35.18-29.64,62.51-52.08,77.09
					c-11.89,7.85-24.17,12.03-35.3,12.03c-1.25,0-2.49-0.1-3.74-0.2c-27.72-2.96-70.02-37.32-83.25-88.71
					c-2.01-7.55-3.36-15.4-3.93-23.56c-0.48-6.42-0.58-12.64-0.38-18.76c2.11-64.85,40.28-110.23,91.31-110.23
					c50.93,0,89.2,45.28,91.31,110.03C1668.84,855.38,1668.74,861.7,1668.26,868.23z"/>
				<path class="st50" d="M1494.95,890.76c-1.44,0.71-3.07,1.02-4.6,1.02c-6.91,0.1-14.29-5.61-17.93-14.79
					c-4.51-11.22-1.73-23.15,6.23-26.82c2.3-1.02,4.89-1.22,7.39-0.71c5.95,1.22,11.99,6.53,15.16,14.48
					C1505.69,875.16,1502.91,887.09,1494.95,890.76z"/>
				<path class="st50" d="M1680.73,877c-3.36,8.36-9.78,13.77-16.02,14.58c-2.21,0.41-4.41,0.1-6.52-0.82
					c-4.32-1.94-7.1-6.53-7.96-12.03c-0.86-4.39-0.38-9.48,1.63-14.48c0-0.1,0.1-0.2,0.1-0.3c3.45-8.57,10.17-14.18,16.69-14.68
					c2.01-0.2,4.03,0.1,5.95,0.92C1682.46,853.85,1685.24,865.78,1680.73,877z"/>
				<path class="st59" d="M1680.73,877c-3.36,8.36-9.78,13.77-16.02,14.58c-8.54,35.18-29.64,62.51-52.08,77.09
					c15.54-16.72,39.43-66.66,34.48-75.56c-4.95-8.9-36.12,10.58-46.48-0.59c-16.39-17.68-18.04-17.1-34.44-0.73
					c-18.88,18.85-39.01-5.21-57.04-1.77c-18.03,3.45,26.94,82.44,64.43,90.48c-27.72-2.96-70.02-37.32-83.25-88.71
					c-6.91,0.1-14.29-5.61-17.93-14.79c-4.51-11.22-1.73-23.15,6.23-26.82c2.3-1.02,4.89-1.22,7.39-0.71
					c2.11-64.85,40.28-110.23,91.31-110.23c50.93,0,89.2,45.28,91.31,110.03c2.01-0.2,4.03,0.1,5.95,0.92
					C1682.46,853.85,1685.24,865.78,1680.73,877z"/>
				<path d="M1670.26,847.96v6.81c-0.13,7.51-3.64,13.95-9.61,19.27c-11.46,10.22-31.91,16.56-54.9,19.08
					c-8.95-0.61-16.24-27.44-23.66-27.44c-7.46,0-9.52,25.52-25.28,27.44c-26.99-2.89-51.57-10.68-63.9-23.05
					c-5.49-5.51-8.56-11.9-8.43-19.18v-9.19C1485.06,819.5,1670.97,825.61,1670.26,847.96z"/>
				<path class="st60" d="M1569.26,901.3c0,0,0.84,12.69,13.55,12.69s13.55-12.2,13.55-12.2s-4.52,8.46-14,8.46
					C1572.86,910.25,1569.26,901.3,1569.26,901.3z"/>
				<g>
					<path class="st59" d="M1560.18,934.93c5.79,5.02,36.66,3.27,37.96,0C1599.25,932.14,1573.7,936.94,1560.18,934.93z"/>
					<path class="st60" d="M1564.06,939.81c0,0,14.39,3.15,28.37,0c2.65,0-2.62,2.89-5.51,3.36
						C1571.61,945.67,1564.06,939.81,1564.06,939.81z"/>
				</g>
				<path class="st61" d="M1660.65,874.04c-11.46,10.22-31.91,16.56-54.9,19.08c-8.95-0.61-16.24-27.44-23.66-27.44
					c-7.46,0-9.52,25.52-25.28,27.44c-26.99-2.89-51.57-10.68-63.9-23.05c14.83-13.58,45.95-22.86,81.94-22.86
					C1614.31,847.21,1647.92,858.36,1660.65,874.04z"/>
			</g>
			<path class="st3" d="M1727.84,871.22c-12.55-78.53-70.59-169.93-147.44-169.93c-74.32,2.92-176.98,128.66-152.12,212.02
				c26.29,88.14,91.44,137.6,148.27,147.06C1583.69,1063.5,1760.05,965.33,1727.84,871.22z M1570.92,1050.38
				c-82.31-36.33-108.33-118.78-102.87-140.57c13.86-55.34,59.35-81.06,110.64-78.35c57.87,3.07,103.25,38.06,106.14,67.43
				C1692.51,977.19,1654.76,1021.69,1570.92,1050.38z"/>
			<g>
				<g>
					<path class="st54" d="M1881.2,2224.87l-61.27-48.74c-19.51-30.39-57.63-26.27-61.5,6.04c-12.48,10.03-49.68-7.87-49.68-7.87
						l-5.55,71.94l112.6,21.82L1881.2,2224.87z"/>
				</g>
				<path class="st55" d="M1804.06,2265.23c0-0.24-0.01-0.48-0.01-0.71c0.41-26.82,22.49-48.55,49.3-48.55s47.04,13.46,46.63,40.28
					c0,0.24-0.02,0.48-0.03,0.71C1899.99,2269.53,1844.56,2277.55,1804.06,2265.23z"/>
			</g>
			<path class="st57" d="M1585.51,717.73c97.39,10.77,121.77,93.74,132.27,113.3c-22.54-66.48-73.45-129.73-137.38-129.73
				c-71.16,2.79-168.28,118.18-154.59,201.16C1437.88,790.98,1537.66,712.44,1585.51,717.73z"/>
		</g>
		<g>
			<path class="st62" d="M1945.69,878.06c0,0-21.2-24.15-59.92-9.77c-93.46,34.71-11.54,191.86-88.3,323.03
				c67.25,77.78,155.91,0.13,155.91,0.13S1969.53,933.54,1945.69,878.06z"/>
			<path class="st63" d="M1954.29,1360.58l165.62,624.01l46.09,1.77l-67.33-637.08C2073.17,1197.1,1925.75,1262.68,1954.29,1360.58z
				"/>
			<path class="st63" d="M1842.17,1347.62c-0.12,206.92,16.54,615.53,16.54,615.53l53.54-2.99l85.26-607.07
				C2001.48,1267.93,1860.72,1225.97,1842.17,1347.62z"/>
			<g>
				<path class="st46" d="M2205.05,2058.36c-1.12-9.51-30.05-20.05-30.05-20.05l-11.85-81.6v-2.19h-54.34l-5.4,32.7l43.31,71.14
					H2205.05z"/>
				<polygon class="st46" points="2110.97,2058.36 2136.48,1982.91 2103.34,1987.01 2103.39,2058.36 				"/>
			</g>
			<g>
				<path class="st46" d="M1931.06,2061.82c11.94-8.91-12.32-20.05-12.32-20.05l-6.49-81.6v-2.19h-52.68l-5.4,32.7l27.39,71.14
					H1931.06z"/>
				<polygon class="st46" points="1861.72,2061.82 1887.24,1986.37 1854.09,1990.47 1854.15,2061.82 				"/>
			</g>
			<path class="st47" d="M2067.87,1078.84c-1.3,20.31-3.51,44.4-5.6,65.48c-2.99,29.03-5.86,52.21-5.86,52.21h-152.06
				c-0.78-4.56-3.25-11.72-6.77-20.83c-9.63-23.95-27.08-61.18-38.67-97.38c-10.16-31.37-16.01-61.97-8.86-82.8
				c13.8-43.74,155.32-51.55,175.11-29.81c19.79,21.87,36.06,49.47,42.31,70.04C2069.3,1041.87,2069.17,1058.53,2067.87,1078.84z"/>
			<path class="st48" d="M2067.87,1078.84c-1.3,20.31-3.51,44.4-5.6,65.48c-1.95,0-4.17,0-6.38-0.13
				c-69.78-3.64-132.27,19.92-158.31,31.5c-9.63-23.95-27.08-61.18-38.67-97.38L2067.87,1078.84z"/>
			<path class="st64" d="M1994.71,958.94c-0.39,14.19-73.16,26.04-80.19,5.47l-8.33-96.21c15.23,0.52,49.21,1.56,64.18,2.08
				c0.91,3.9,3.52,12.5,6.77,22.91c3.9,12.63,8.59,27.86,12.11,40.62C1992.5,945.4,1994.84,955.03,1994.71,958.94z"/>
			<path class="st51" d="M1991.74,943.05c-45.73,1.19-66.03-41.65-66.03-41.65c17.58-11.59,36.06-12.5,51.43-8.2
				C1981.04,905.82,1988.22,930.29,1991.74,943.05z"/>
			<path class="st63" d="M1904.42,1196.58c0,0-65.69,67.42-62.24,151.04c76.01,20.54,255.36-4.55,255.36-4.55
				c-5.29-55.46-9.14-90.87-41.16-146.49C1945.97,1196.58,1904.42,1196.58,1904.42,1196.58z"/>
			<path class="st64" d="M2059.15,1075.33c-4.16,3.64-11.32,10.28-20.44,18.23c-9.76,8.46-21.74,18.36-35.02,27.34
				c-26.04,17.58-56.76,32.16-83.84,26.82c-53.9-10.67-95.56-122.11-69.78-152.19c25.78-30.2,59.11-22.39,75.64,21.61
				c8.72,23.04,15.23,67.83,15.23,67.83c1.95-0.65,3.78-1.17,5.6-1.82c5.73-1.82,11.07-3.52,16.14-5.21
				c50.12-15.49,67.44-18.88,82.8-23.3C2062.01,1049.81,2072.82,1059.96,2059.15,1075.33z"/>
			<path class="st51" d="M2038.71,1093.55c-9.76,8.46-21.74,18.36-35.02,27.34c-12.3-20.99-54.21-34.68-62.39-36.05
				c5.73-1.82,16.31-5.22,21.39-6.91l21.87-5.47L2038.71,1093.55z"/>
			<g>
				<path class="st64" d="M2112.79,1103.97c-34.89,36.71-158.44-16.53-158.44-16.53c-15.76-4.95-13.02-32.03,9.24-29.42l66.92,1.82
					l34.63,0.91c0,0,5.6-16.53-4.95-43.48c0,0,0,0,0-0.13c-5.73-14.45-16.27-31.9-35.02-51.42
					C2043.66,972.22,2140.78,1074.41,2112.79,1103.97z"/>
				<path class="st51" d="M2081.41,1063.09c-10.36-0.31-12.78-2.71-50.9-3.25l34.63,0.91c0,0,5.6-16.53-4.95-43.48
					C2071.14,1035.68,2075.89,1049.16,2081.41,1063.09z"/>
				<path class="st65" d="M2084.31,1064.24c-0.02,0-0.05,0-0.07,0c-53.35-5.65-125.74-5.95-126.47-5.95c-0.36,0-0.65-0.29-0.65-0.65
					c0-0.36,0.29-0.65,0.65-0.65c0,0,0,0,0,0c0.73,0,73.18,0.3,126.6,5.96c0.36,0.04,0.62,0.36,0.58,0.72
					C2084.92,1063.99,2084.64,1064.24,2084.31,1064.24z"/>
			</g>
			<path class="st65" d="M2032.97,1112.96c-11.44-1.85-36.27-9.44-55.09-15.48c-11.84-3.8-22.05-7.23-27.09-8.94
				c-11.9-4.03-11.9-4.03-12.01-4.5l-1.62-17.8l1.3-0.12l1.57,17.31c5.14,1.82,71.86,24.8,93.15,28.24L2032.97,1112.96z"/>
			<path class="st51" d="M1957.78,1088.86c1.12,0.63-18.36-4.96-18.36-4.96l-2.65-23.29c0,0,17.03-5.01,30.65-3.13
				C1941.3,1057.63,1937.32,1077.31,1957.78,1088.86z"/>
			<path class="st66" d="M2047.04,1054.22c0,0,26.95-7.18,32.63,7.96c-18-1.55-34.29-2.44-34.29-2.44L2047.04,1054.22z"/>
			<g>
				<g>
					<path class="st64" d="M2036.62,830.82c11.48,48.49-11.13,102.87-35.23,109.71c-39.26,11.14-97.09-27.17-108.57-75.67
						c-11.48-48.49,11.41-95.43,51.12-104.83C1983.65,750.63,2025.14,782.33,2036.62,830.82z"/>
					<path class="st62" d="M2003.92,772.17c0,0-80.03,62.95-93.75,142.01c-10.49-11.27-19.18-22.26-26.04-32.96
						c-26.34-41.09-25.7-77.76,3.02-108.59C1919.55,737.86,1973.6,741.68,2003.92,772.17z"/>
					<path class="st62" d="M1994.45,780.02c0,0,27.39,12.64,41.67,48.82c-4.52-38.99-42.47-109.35-121.75-75.06
						C1835.08,788.07,1994.45,780.02,1994.45,780.02z"/>
				</g>
				<g>
					<path class="st67" d="M1868.21,851.38c3.98-23.82,152.2-60.93,165.77-34.1c0,0-12.52-98.33-109.27-71.96
						C1828.78,771.46,1868.21,851.38,1868.21,851.38z"/>
					<path class="st49" d="M1868.21,851.38c3.98-23.82,151.53-61.01,165.77-34.1c0,0-10.03-90.9-104.94-66.62
						C1839.19,773.64,1868.21,851.38,1868.21,851.38z"/>
					<path class="st67" d="M1878.59,871.75c-6.32,5.16-58.03,21.24-49.84,2.2c10.06-23.4,56.17-42.41,75.5-43.33
						C1896.01,837.72,1870.34,850.96,1878.59,871.75z"/>
					<path class="st62" d="M1961.37,801.1c0,0,26.5-9.92,59.04-0.41c-5.84-20.44-24.9-28.54-38.59-26.84
						C1957.67,776.86,1961.37,801.1,1961.37,801.1z"/>
				</g>
				
					<ellipse transform="matrix(0.4204 -0.9073 0.9073 0.4204 323.9342 2244.7083)" class="st66" cx="1919.02" cy="868.79" rx="17.45" ry="17.45"/>
				<path class="st68" d="M1921.21,882.75c-0.11,0-0.23-0.02-0.34-0.05c-0.69-0.19-1.1-0.9-0.91-1.6c1.32-4.86,1.04-8.82-0.85-11.77
					c-2.59-4.05-7.43-4.91-7.48-4.92c-0.71-0.12-1.19-0.79-1.07-1.5c0.12-0.71,0.79-1.19,1.49-1.07c0.24,0.04,6,1.03,9.23,6.06
					c2.32,3.6,2.72,8.28,1.19,13.89C1922.31,882.36,1921.79,882.75,1921.21,882.75z"/>
				<g>
					<path class="st49" d="M1952.41,879.07c0.21-0.64,39.82,19.5,61.84,4.1c0,0,11.01,12.57,22.04,6.42
						c-2.08,19.35-17.9,50.35-37.92,52.68c-45.68,5.32-69.33-40.08-69.33-40.08S1944.37,904.29,1952.41,879.07z"/>
					<path class="st49" d="M1958.43,886.25c-0.27-0.05-0.53-0.18-0.72-0.41l-27.02-30.58c-0.47-0.53-0.43-1.34,0.11-1.82
						c0.53-0.5,1.36-0.45,1.82,0.11l27.02,30.58c0.47,0.53,0.43,1.34-0.11,1.82C1959.22,886.23,1958.82,886.32,1958.43,886.25z"/>
					<path class="st49" d="M1940.63,915.54c-0.27-0.05-0.53-0.18-0.72-0.41l-23.24-26.3c-0.47-0.53-0.43-1.34,0.11-1.82
						c0.53-0.5,1.36-0.45,1.82,0.11l23.24,26.3c0.47,0.53,0.43,1.34-0.11,1.82C1941.41,915.52,1941.01,915.61,1940.63,915.54z"/>
				</g>
				<path class="st68" d="M2015.81,878.48c-2.4,0-4.26-0.59-4.43-0.64c-0.68-0.22-1.05-0.95-0.83-1.63
					c0.22-0.68,0.95-1.05,1.63-0.83c0.28,0.09,7,2.19,10.42-2.74c0.41-0.59,0.51-1.18,0.31-1.86c-1.03-3.58-8.99-7.64-11.96-8.9
					c-0.66-0.28-0.96-1.04-0.68-1.69c0.28-0.66,1.04-0.96,1.69-0.68c1.21,0.51,11.88,5.17,13.44,10.56
					c0.41,1.42,0.18,2.83-0.67,4.05C2022.28,877.65,2018.66,878.48,2015.81,878.48z"/>
				<g>
					<path class="st61" d="M2000.5,858.83c-4.37,5.66-30.97,6.38-34.44,2.19c-5.73-6.93-6.26-19.53-1.43-22.5
						c4.83-2.97,32.46-3.41,36.41,1.23C2005.01,844.4,2003.44,855.02,2000.5,858.83z"/>
					<path class="st61" d="M2018.64,856.73c4.28,4.08,24.61,2.56,26.91-1.18c3.81-6.17,2.28-16.39-1.71-18.82
						c-8.89-5.43-25.09-1.74-27.74,2.4C2013.46,843.28,2015.71,853.94,2018.64,856.73z"/>
					<path class="st69" d="M1929.2,854.45c-0.63,0-1.18-0.46-1.27-1.1c-0.11-0.71,0.38-1.36,1.08-1.47l30.43-4.56
						c0.19-6.49,5.66-11.48,14.9-13.47c11.18-2.41,25.57,0.25,29.28,7.83c2.68,0.06,6.67-0.04,9.59-0.33
						c2.7-6.27,11.95-8.78,20.22-8.46c8.19,0.32,14.15,3.31,15.2,7.63c0.17,0.69-0.26,1.39-0.95,1.56
						c-0.69,0.16-1.39-0.26-1.56-0.95c-0.74-3.07-6-5.39-12.79-5.65c-7.38-0.28-16.16,1.93-17.96,7.48
						c-0.16,0.48-0.58,0.82-1.08,0.88c-3.38,0.4-8.64,0.52-11.59,0.4c-0.52-0.02-0.98-0.35-1.16-0.84
						c-2.51-6.76-16.16-9.28-26.67-7.02c-4.05,0.87-13.4,3.78-12.84,11.96c0.05,0.67-0.43,1.27-1.1,1.36l-31.55,4.72
						C1929.32,854.44,1929.26,854.45,1929.2,854.45z"/>
				</g>
			</g>
		</g>
		<path class="st70" d="M1275.09,826.95c3.93-14,8.74-49.83-20.42-64.61c-4.77-27.93-14.79-54.26-62.54-56.57
			c-44.97-2.17-97.5,35.23-100.32,12.32c12.14,5.18,31.45-8.33,55.98-16.79c31.25-10.77,106.53-22.89,111.36,54.45
			C1291.11,777.21,1286.89,805.85,1275.09,826.95z"/>
	</g>
</g>
</svg>
